<svg version="1.0" xmlns="http://www.w3.org/2000/svg"
 width="512.000000pt" height="512.000000pt" viewBox="0 0 512.000000 512.000000"
 preserveAspectRatio="xMidYMid meet">

<g transform="translate(0.000000,512.000000) scale(0.100000,-0.100000)"
fill="#111111" stroke="none">
<path d="M1160 5090 c-443 -45 -827 -315 -1033 -725 -45 -92 -101 -252 -113
-324 l-6 -40 1398 -4 c1377 -3 1401 -3 1532 -25 279 -45 478 -109 630 -203
197 -121 306 -273 359 -497 27 -114 24 -358 -6 -466 -87 -323 -391 -566 -818
-655 -164 -35 -286 -41 -769 -41 l-464 0 0 725 0 725 -635 0 -635 0 0 -1770 0
-1770 635 0 635 0 0 454 0 454 553 5 c621 4 676 9 980 86 191 48 311 93 502
186 632 307 1043 812 1170 1437 57 284 56 499 -5 801 -126 622 -556 1145
-1179 1434 -184 86 -413 153 -659 195 -123 21 -154 22 -1062 24 -514 1 -969
-2 -1010 -6z"/>
</g>
</svg>
